<?xml version="1.0" encoding="UTF-8" standalone="no"?>
<svg
   version="1.1"
   width="595.27557"
   height="841.88977"
   id="svg125"
   viewBox="0 0 595.27557 841.88977"
   xmlns="http://www.w3.org/2000/svg">
  <g id="1">
    <path
       d="m 314.0373,176.0943 c -0.3585,-1.9265 -3.1066,-5.5808 -11.1804,-5.4961 -8.0726,0.0852 -11.8871,2.8332 -12.3308,5.5953 -0.4433,2.748 2.1305,3.1021 2.1305,3.1021 1.8627,-2.224 9.6691,-6.4733 11.4438,-6.8275 1.7736,-0.3682 1.9518,0 1.9518,0 -0.9773,0.1699 -3.1062,1.2323 -5.058,2.6489 -1.9506,1.4306 -6.0316,4.5328 -9.492,5.0568 -3.4603,0.5384 -4.8797,-0.0852 -5.9433,-1.4166 -1.0653,-1.3315 0.1771,-2.6629 1.0636,-2.3939 0.8882,0.2694 -0.5212,1.1757 0.799,1.4166 0.9757,0.1843 1.0637,-0.9773 1.0637,-0.9773 0.1783,-1.0625 -0.5312,-1.5864 -1.5073,-1.7707 -0.9757,-0.1699 -2.4843,0.1843 -2.8384,1.6855 -0.3558,1.5158 0.0891,3.8246 4.2577,4.5328 4.1703,0.7083 7.8077,-1.6856 11.0018,-3.3711 3.1929,-1.6856 7.3615,-5.156 10.2003,-4.7027 2.84,0.4389 3.4603,2.3088 3.4603,3.541 0,1.2468 -0.5312,2.6629 -2.3071,2.5782 -1.7736,-0.0991 -1.5058,-1.4165 -1.2412,-1.8699 0.2667,-0.4388 0.622,-0.7083 0,-0.9773 -0.6203,-0.2549 -1.6839,0.0992 -2.218,0.9773 -0.5328,0.8926 -0.2634,3.7964 3.1942,3.9097 2.8387,0.0847 3.9931,-2.8472 3.5498,-5.2411 z"
       id="path82" />
    <path
       d="m 314.2212,176.0943 c 0.3586,-1.9265 3.105,-5.5808 11.1788,-5.4961 8.0743,0.0852 11.8875,2.8332 12.3308,5.5953 0.4433,2.748 -2.1293,3.1021 -2.1293,3.1021 -1.8626,-2.224 -9.6703,-6.4733 -11.4434,-6.8275 -1.7751,-0.3682 -1.9522,0 -1.9522,0 0.9761,0.1699 3.1066,1.2323 5.0568,2.6489 1.9522,1.4306 6.0329,4.5328 9.4936,5.0568 3.4587,0.5384 4.8781,-0.0852 5.9422,-1.4166 1.0652,-1.3315 -0.1771,-2.6629 -1.0641,-2.3939 -0.8865,0.2694 0.5228,1.1757 -0.7974,1.4166 -0.9761,0.1843 -1.0653,-0.9773 -1.0653,-0.9773 -0.1782,-1.0625 0.5329,-1.5864 1.5086,-1.7707 0.9745,-0.1699 2.4834,0.1843 2.8371,1.6855 0.3558,1.5158 -0.0875,3.8246 -4.2565,4.5328 -4.1714,0.7083 -7.8076,-1.6856 -11.0017,-3.3711 -3.1926,-1.6856 -7.3628,-5.156 -10.2016,-4.7027 -2.8383,0.4389 -3.4603,2.3088 -3.4603,3.541 0,1.2468 0.5312,2.6629 2.3076,2.5782 1.7731,-0.0991 1.5069,-1.4165 1.2419,-1.8699 -0.2662,-0.4388 -0.6216,-0.7083 0,-0.9773 0.6207,-0.2549 1.6844,0.0992 2.2184,0.9773 0.5312,0.8926 0.2634,3.7964 -3.1957,3.9097 -2.8372,0.0847 -3.9916,-2.8472 -3.5483,-5.2411 z"
       id="path84" />
    <path
       d="m 348.482,177.2519 h 182.6288 m -433.9462,0 h 182.6288"
       style="fill:none;stroke:#000000;stroke-width:1.2817;stroke-linecap:butt;stroke-linejoin:miter;stroke-dasharray:1.2817, 1.2817, 1.2817, 1.2817"
       id="path86" />
  </g>
  <g id="2">
    <path
     d="m 312.1192,223.7614 -0.0117,-3.2376 -219.827,0.7349 -0.007,3.2422 219.8199,-0.7348 0.0141,-3.2423 219.8245,0.7349 0.007,3.2422 z M 68.7467,222.9162 c -2.4839,0.9672 -3.2,2.5637 -1.7233,3.6507 2.484,1.9745 6.3178,1.5918 7.379,0.9415 -0.2066,1.033 1.5308,1.8359 2.869,2.1153 1.7232,0.4132 3.6366,0.5822 5.3693,-1.3382 2.1247,-2.8713 5.5454,-4.1227 9.4332,-3.7283 0.1949,-0.5352 0.2301,-1.1245 0.1339,-1.695 0.0845,-0.5471 0.0352,-1.0753 -0.1104,-1.6646 -3.9348,0.4484 -7.3672,-0.8334 -9.452,-3.6695 -1.7726,-1.9181 -3.6672,-1.7561 -5.4116,-1.3476 -1.3006,0.3099 -3.038,1.1058 -2.8361,2.1129 -1.0635,-0.6127 -4.9138,-0.9602 -7.4165,1.0096 -1.4415,1.0753 -0.7114,2.6788 1.7655,3.6132 z m 486.7192,0 c 2.4886,0.9672 3.2,2.5637 1.7232,3.6507 -2.4839,1.9745 -6.3225,1.5988 -7.3789,0.9415 0.2066,1.0259 -1.5308,1.8359 -2.862,2.12 -1.7302,0.4085 -3.639,0.5775 -5.381,-1.3429 -2.1271,-2.8713 -5.5407,-4.1227 -9.4286,-3.7283 -0.1948,-0.5352 -0.23,-1.1245 -0.1267,-1.7021 -0.0916,-0.547 -0.0423,-1.0682 0.1033,-1.6504 3.9371,0.4413 7.3672,-0.8405 9.4567,-3.6766 1.7679,-1.9181 3.6578,-1.7608 5.4139,-1.3429 1.2983,0.3052 3.031,1.1011 2.8291,2.1082 1.0635,-0.6127 4.9161,-0.9531 7.4188,1.0096 1.4392,1.0753 0.7091,2.6788 -1.7678,3.6132 z"
     style="fill:#1b1918;fill-rule:evenodd"
     id="path65" />
  </g>
  <g id="3">
    <path
       d="m 303.3743,263.5136 c 3.6623,0 6.6309,-2.9686 6.6309,-6.6307 0,-3.6622 -2.9686,-6.6308 -6.6309,-6.6308 -3.6621,0 -6.6307,2.9686 -6.6307,6.6308 0,3.6621 2.9686,6.6307 6.6307,6.6307 z"
       id="path67" />
    <path
       d="m 278.5091,261.5797 c 2.5941,0 4.6969,-2.1029 4.6969,-4.6968 0,-2.594 -2.1028,-4.6969 -4.6969,-4.6969 -2.5939,0 -4.6967,2.1029 -4.6967,4.6969 0,2.5939 2.1028,4.6968 4.6967,4.6968 z"
       id="path69" />
    <path
       d="m 328.516,261.5797 c 2.594,0 4.6967,-2.1029 4.6967,-4.6968 0,-2.594 -2.1027,-4.6969 -4.6967,-4.6969 -2.5941,0 -4.6968,2.1029 -4.6968,4.6969 0,2.5939 2.1027,4.6968 4.6968,4.6968 z"
       id="path71" />
    <path
       d="m 256.683,259.6457 c 1.5259,0 2.7628,-1.237 2.7628,-2.7629 0,-1.5259 -1.2369,-2.7628 -2.7628,-2.7628 -1.5258,0 -2.7629,1.2369 -2.7629,2.7628 0,1.5259 1.2371,2.7629 2.7629,2.7629 z"
       id="path73" />
    <path
       d="m 350.4974,259.6457 c 1.5259,0 2.7629,-1.237 2.7629,-2.7629 0,-1.5259 -1.237,-2.7628 -2.7629,-2.7628 -1.5258,0 -2.7627,1.2369 -2.7627,2.7628 0,1.5259 1.2369,2.7629 2.7627,2.7629 z"
       id="path75" />
    <path
       d="M 244.7425,257.1592 H 70.1333"
       style="fill:none;stroke:#000000;stroke-width:1.4998;stroke-linecap:butt;stroke-linejoin:miter;stroke-dasharray:none"
       id="path77" />
    <path
       d="M 537.0474,257.1592 H 362.4383"
       style="fill:none;stroke:#000000;stroke-width:1.4998;stroke-linecap:butt;stroke-linejoin:miter;stroke-dasharray:none"
       id="path79" />
  </g>
  <g id="4">
    <path
       d="m 274.0907,312.6577 c 2.3339,0.2328 5.3542,-1.1955 7.4487,-2.0542 2.323,-0.9538 4.5716,-2.044 6.9591,-2.8674 3.3428,-1.1512 8.2483,-2.6005 11.5653,-0.2399 1.2167,0.8658 1.5814,1.6114 2.3049,3.1073 -0.008,-1.9261 -0.9087,-3.4358 -1.6785,-4.1353 -2.9374,-2.6681 -8.936,-0.6905 -11.968,0.3632 -4.4125,1.5336 -8.1481,3.89 -12.6414,5.2716 -0.5351,0.1646 -1.5585,0.2609 -1.9901,0.5547 z"
       id="path28" />
    <path
       d="m 301.1955,310.5891 c -0.5166,-1.9452 -4.0673,-4.027 -6.5373,-1.8896 -0.433,0.374 -1.4731,1.4361 -1.2139,2.5467 0.1172,0.5002 1.1654,1.4833 1.8928,-0.1054 0.455,-0.9944 0.6515,-1.9524 1.3835,-2.4353 1.449,-0.9538 3.2284,0.3387 4.3304,1.7125 z"
       id="path30" />
    <path
       d="m 269.2092,309.7825 c -0.9607,-0.005 -1.7769,0.2059 -2.8148,0.146 -0.9196,-0.0532 -1.6626,-0.3578 -2.266,-0.9837 -1.1204,-1.1614 -0.4206,-3.8864 -1.4897,-4.398 -1.2716,-0.6079 -2.027,1.1226 -0.5181,3.3186 1.1261,1.6395 2.6686,2.2672 4.346,2.3366 0.7153,0.0299 2.1715,-0.1298 2.7426,-0.4195 z"
       id="path32" />
    <path
       d="m 273.3123,308.4625 c -0.8052,0.0485 -2.7472,1.0897 -3.9494,0.0916 -0.4964,-0.4123 -0.6214,-1.2069 -0.8282,-2.1434 -0.1049,-0.4733 -0.226,-0.8149 -0.4869,-0.9675 -1.4675,-0.8569 -1.709,2.6292 1.3052,3.5788 1.5609,0.4919 2.618,0.0281 3.9593,-0.5595 z"
       id="path34" />
    <path
       d="m 275.9314,307.4381 c -0.7405,0.0509 -1.8708,0.5517 -2.5302,-0.2226 -0.3594,-0.4224 -0.3123,-0.864 -0.4872,-1.5138 -0.3035,-1.1273 -1.6251,-0.6074 -0.6314,1.025 0.2518,0.4135 0.5273,0.642 0.9518,0.8455 0.8141,0.3895 2.0298,0.274 2.697,-0.1341 z"
       id="path36" />
    <path
       d="m 266.7223,311.6088 -0.3559,0.058 -0.4104,0.0592 c -2.7978,0.5296 -6.1679,0.228 -7.9976,-1.9099 -0.8658,-1.0113 -1.2628,-2.6891 -1.4296,-4.9503 -0.0711,-0.9646 -0.0286,-2.159 -0.3158,-2.9727 -0.3219,-0.9125 -1.2447,-0.6726 -1.607,0.0203 -0.7103,1.3559 0.5337,4.1694 0.938,5.0831 2.6584,6.0029 6.1092,5.7414 10.3791,5.6756 l 0.3035,-0.0724 c 9.6994,-1.0298 27.4879,-12.1433 34.09,-7.8099 2.2936,1.5055 2.4073,3.7715 2.7808,4.5643 -0.1211,-5.9567 -2.2323,-8.2287 -6.3396,-8.2485 -7.4399,-0.0353 -20.3958,8.3891 -28.9161,10.2351 -0.3754,0.1095 -0.6955,0.0891 -1.1194,0.2681 z"
       id="path38" />
    <path
       d="m 256.6861,308.894 c -123.7018,-0.1024 -217.7196,0.1071 -217.7196,-0.4943 0,-0.6007 93.8606,-1.1004 217.5623,-1.2027 z"
       id="path40" />
    <path
       d="m 302.835,304.1537 c 0.0163,-1.1183 -0.137,-2.4647 -0.7528,-3.0612 -0.835,-0.8096 -1.0669,0.4475 -0.5039,0.6103 0.3438,0.0993 0.591,-0.0712 0.8258,0.2579 0.296,0.4135 0.3764,1.5043 0.4309,2.193 z"
       id="path42" />
    <path
       d="m 302.9933,303.9915 0.0694,0.8737 c 0.0195,-0.03 0.1332,0.073 0.1229,-0.5637 -0.005,-0.3291 -0.0241,-0.356 -0.1062,-0.5487 0.0581,-1.5025 -0.3697,-1.9136 -0.1335,-2.5437 l 0.4316,4.1336 c 0.1279,-2.2062 -0.3187,-5.1472 -0.8987,-6.8322 -0.33,-0.9568 -0.7217,-1.8352 -1.1572,-2.4336 -0.7653,-1.0513 -1.2989,-1.0866 -1.7982,-1.4708 h -0.6661 c -0.2323,0.2466 -0.506,0.4243 -0.5722,0.9084 -0.0652,0.4775 0.0913,1.1141 0.2393,1.4145 0.6714,1.3607 2.5277,-0.5379 3.6523,1.7975 0.266,0.5535 0.7246,1.7305 0.692,2.5556 -0.1378,-0.1376 -0.153,-0.2597 -0.2337,-0.5487 -0.6413,-2.3031 -2.1583,-3.0175 -2.4873,-2.1786 -0.1905,0.7001 0.0952,1.3074 0.5885,1.3714 0.5985,0.0772 1.0046,-0.0891 1.4289,0.377 0.484,0.532 0.8962,2.4677 0.8282,3.6883 z"
       id="path44" />
    <path
       d="m 333.0908,312.6577 c -2.334,0.2328 -5.3542,-1.1955 -7.4488,-2.0542 -2.323,-0.9538 -4.5719,-2.044 -6.959,-2.8674 -3.3428,-1.1512 -8.2484,-2.6005 -11.5653,-0.2399 -1.2168,0.8658 -1.5815,1.6114 -2.3053,3.1073 0.008,-1.9261 0.909,-3.4358 1.6785,-4.1353 2.9377,-2.6681 8.9364,-0.6905 11.9683,0.3632 4.4126,1.5336 8.1481,3.89 12.6411,5.2716 0.5354,0.1646 1.5588,0.2609 1.9905,0.5547 z"
       id="path46" />
    <path
       d="m 305.9856,310.5891 c 0.5166,-1.9452 4.0673,-4.027 6.5376,-1.8896 0.4327,0.374 1.4731,1.4361 1.2139,2.5467 -0.1172,0.5002 -1.1657,1.4833 -1.8927,-0.1054 -0.4551,-0.9944 -0.6516,-1.9524 -1.3835,-2.4353 -1.4491,-0.9538 -3.2285,0.3387 -4.3305,1.7125 z"
       id="path48" />
    <path
       d="m 337.9718,309.7825 c 0.9611,-0.005 1.7773,0.2059 2.8152,0.146 0.9193,-0.0532 1.6626,-0.3578 2.266,-0.9837 1.1204,-1.1614 0.4203,-3.8864 1.4897,-4.398 1.2713,-0.6079 2.027,1.1226 0.5181,3.3186 -1.1261,1.6395 -2.6686,2.2672 -4.346,2.3366 -0.7153,0.0299 -2.1714,-0.1298 -2.743,-0.4195 z"
       id="path50" />
    <path
       d="m 333.8691,308.4625 c 0.8052,0.0485 2.7472,1.0897 3.9494,0.0916 0.4965,-0.4123 0.6215,-1.2069 0.8279,-2.1434 0.1052,-0.4733 0.2259,-0.8149 0.4873,-0.9675 1.4674,-0.8569 1.7089,2.6292 -1.3053,3.5788 -1.5609,0.4919 -2.6179,0.0281 -3.9593,-0.5595 z"
       id="path52" />
    <path
       d="m 331.2501,307.4381 c 0.7404,0.0509 1.8708,0.5517 2.5301,-0.2226 0.3594,-0.4224 0.3123,-0.864 0.4873,-1.5138 0.3034,-1.1273 1.6246,-0.6074 0.6314,1.025 -0.2518,0.4135 -0.5273,0.642 -0.9519,0.8455 -0.8141,0.3895 -2.0301,0.274 -2.6969,-0.1341 z"
       id="path54" />
    <path
       d="m 304.3464,304.1537 c -0.0163,-1.1183 0.137,-2.4647 0.7528,-3.0612 0.8347,-0.8096 1.067,0.4475 0.5036,0.6103 -0.3435,0.0993 -0.5907,-0.0712 -0.8255,0.2579 -0.296,0.4135 -0.3767,1.5043 -0.4309,2.193 z"
       id="path56" />
    <path
       d="m 304.1881,303.9915 -0.0694,0.8737 c -0.0195,-0.03 -0.1331,0.073 -0.1229,-0.5637 0.005,-0.3291 0.0241,-0.356 0.1063,-0.5487 -0.0581,-1.5025 0.3697,-1.9136 0.1335,-2.5437 l -0.4317,4.1336 c -0.1278,-2.2062 0.3187,-5.1472 0.8987,-6.8322 0.3301,-0.9568 0.7217,-1.8352 1.1573,-2.4336 0.7652,-1.0513 1.2985,-1.0866 1.7982,-1.4708 h 0.666 c 0.232,0.2466 0.5057,0.4243 0.5719,0.9084 0.0655,0.4775 -0.091,1.1141 -0.239,1.4145 -0.6714,1.3607 -2.5277,-0.5379 -3.6523,1.7975 -0.2659,0.5535 -0.7245,1.7305 -0.6919,2.5556 0.1377,-0.1376 0.1529,-0.2597 0.2337,-0.5487 0.6413,-2.3031 2.1583,-3.0175 2.4873,-2.1786 0.1905,0.7001 -0.0953,1.3074 -0.5886,1.3714 -0.5984,0.0772 -1.0046,-0.0891 -1.4288,0.377 -0.4841,0.532 -0.8963,2.4677 -0.8283,3.6883 z"
       id="path58" />
    <path
       d="m 340.4591,311.6088 0.3559,0.058 0.4104,0.0592 c 2.7979,0.5296 6.1676,0.228 7.9973,-1.9099 0.8658,-1.0113 1.2628,-2.6891 1.4299,-4.9503 0.0708,-0.9646 0.0287,-2.159 0.3159,-2.9727 0.3219,-0.9125 1.2447,-0.6726 1.6069,0.0203 0.7104,1.3559 -0.5336,4.1694 -0.9384,5.0831 -2.6579,6.0029 -6.1088,5.7414 -10.3786,5.6756 l -0.3035,-0.0724 c -9.6995,-1.0298 -27.488,-12.1433 -34.0901,-7.8099 -2.2935,1.5055 -2.4072,3.7715 -2.7808,4.5643 0.1211,-5.9567 2.232,-8.2287 6.3397,-8.2485 7.4395,-0.0353 20.3954,8.3891 28.9161,10.2351 0.3753,0.1095 0.6955,0.0891 1.1193,0.2681 z"
       id="path60" />
    <path
       d="m 350.4954,308.894 c 123.7017,-0.1024 217.7192,0.1071 217.7192,-0.4943 0,-0.6007 -93.8606,-1.1004 -217.562,-1.2027 z"
       id="path62" />
  </g>
  <g id="5">
    <path
       d="m 539.6639,364.5623 c -0.3427,-1.031 -3.9164,-2.3196 -3.6175,-0.9615 0.4258,1.9301 -1.1142,5.3251 -2.0555,7.1583 -1.9116,3.7239 -5.1456,6.8632 -8.5718,9.1985 -7.8,5.3191 -19.0252,7.0437 -28.2009,8.3263 -16.1557,2.2573 -32.7276,0.5783 -47.8593,-5.2734 2.9059,-0.7228 5.7306,-1.8694 8.4128,-3.5485 7.5289,-4.714 9.3371,-14.8956 3.9243,-21.9132 -5.3264,-6.9077 -14.5605,-9.0397 -22.7203,-6.2941 -3.6658,1.2335 -7.0302,5.1906 -5.3922,9.2646 1.3381,3.3262 4.7015,4.8322 8.1061,5.0395 0.6687,0.0396 -0.3666,-0.6867 -0.6602,-0.7141 -7.6572,-0.7099 -6.585,-8.5838 -1.0615,-11.2218 4.21,-2.0111 10.4202,-2.0836 14.6315,-0.1215 3.3385,1.5564 5.1697,6.4449 5.6953,9.7822 0.6068,3.8639 -0.8013,7.5966 -3.1667,10.5899 -3.1755,4.0184 -7.8965,6.0871 -12.9763,6.9225 -1.935,-0.8937 -3.8457,-1.8429 -5.7187,-2.8814 -7.6737,-4.2556 -14.5872,-9.802 -22.22,-14.1737 -7.3092,-4.1868 -14.9815,-7.7739 -22.9076,-10.6292 -11.0067,-3.9678 -27.1072,-8.1673 -37.252,0.0979 -0.0998,0.0825 -0.1931,0.1709 -0.2904,0.2561 -0.8842,0.5258 -1.6875,1.1666 -2.3969,1.8972 -0.46,-0.1958 -0.9159,-0.3832 -1.3618,-0.5609 -8.408,-3.3498 -18.7792,-5.2959 -27.5896,-2.4961 -3.1922,1.0155 -6.0813,2.9248 -8.3253,5.4043 -2.2448,-2.4795 -5.1328,-4.3888 -8.3269,-5.4043 -8.8077,-2.7998 -19.1797,-0.8537 -27.5877,2.4961 -0.4469,0.1777 -0.9018,0.3651 -1.3622,0.5609 -0.7094,-0.7306 -1.5132,-1.3714 -2.3964,-1.8972 -0.0971,-0.0852 -0.191,-0.1736 -0.2913,-0.2561 -10.1438,-8.2652 -26.2442,-4.0657 -37.253,-0.0979 -7.9245,2.8553 -15.5978,6.4424 -22.9067,10.6292 -7.6316,4.3717 -14.5459,9.9181 -22.2186,14.1737 -1.8726,1.0385 -3.7849,1.9877 -5.719,2.8814 -5.0798,-0.8354 -9.8012,-2.9041 -12.9763,-6.9225 -2.3659,-2.9933 -3.7744,-6.726 -3.1671,-10.5899 0.5257,-3.3373 2.3562,-8.2258 5.6963,-9.7822 4.2107,-1.9621 10.42,-1.8896 14.6304,0.1215 5.5241,2.638 6.5958,10.5119 -1.0608,11.2218 -0.2946,0.0274 -1.3285,0.7537 -0.6605,0.7141 3.4045,-0.2073 6.7682,-1.7133 8.1057,-5.0395 1.6381,-4.074 -1.7258,-8.0311 -5.3918,-9.2646 -8.1602,-2.7456 -17.3943,-0.6136 -22.7213,6.2941 -5.4114,7.0176 -3.6044,17.1992 3.9248,21.9132 2.6817,1.6791 5.507,2.8257 8.4132,3.5485 -15.131,5.8517 -31.7042,7.5307 -47.8595,5.2734 -9.1755,-1.2826 -20.4012,-3.0072 -28.202,-8.3263 -3.4256,-2.3353 -6.659,-5.4746 -8.5706,-9.1985 -0.9415,-1.8332 -2.4823,-5.2282 -2.0564,-7.1583 0.3,-1.3581 -3.273,-0.0695 -3.617,0.9615 -0.3643,1.0907 -1.2106,2.4145 -1.0599,3.555 0.206,1.5626 0.6352,3.0748 1.3887,4.4685 3.924,7.2549 11.1892,11.066 18.76,13.4837 9.0857,2.9027 18.5061,4.8814 28.0338,5.5324 16.0973,1.1015 32.5932,-1.2753 47.3763,-7.8406 7.0145,0.797 14.3255,-0.5302 21.1359,-2.6877 9.6266,-3.0511 18.6319,-7.9111 27.1688,-13.2421 7.2629,-4.5346 14.2353,-10.8288 22.7307,-12.8686 5.2199,-1.2532 12.4754,-1.6615 16.6009,2.3753 -6.0227,3.1902 -11.849,7.9455 -12.6584,14.7453 -0.9326,7.8593 6.0738,7.328 11.1902,4.247 4.0207,-2.4208 8.2153,-6.5809 8.8624,-11.4676 0.3916,-2.9574 -0.4598,-5.875 -2.1445,-8.1966 1.7932,-0.6943 3.6206,-1.2552 5.3958,-1.7121 7.4523,-1.9162 16.0559,-2.9616 23.1301,0.7713 2.239,1.1817 4.1966,2.7052 5.7542,4.4681 -0.344,0.5361 -0.6631,1.0896 -0.9501,1.6589 -2.6518,5.2543 -0.6812,10.8087 2.3802,15.3458 0.0523,0.0784 0.324,0.2 0.4587,0.2098 0.005,0.001 0.0127,0.001 0.0209,0.001 0.008,0 0.0159,0 0.0206,-0.001 0.1348,-0.01 0.4063,-0.1314 0.4587,-0.2098 3.0608,-4.5371 5.0315,-10.0915 2.3789,-15.3458 -0.2876,-0.5693 -0.6047,-1.1228 -0.9489,-1.6589 1.5576,-1.7629 3.5142,-3.2864 5.7551,-4.4681 7.0735,-3.7329 15.6781,-2.6875 23.1286,-0.7713 1.7768,0.4569 3.6032,1.0178 5.3974,1.7121 -1.6842,2.3216 -2.5364,5.2392 -2.1454,8.1966 0.6477,4.8867 4.8416,9.0468 8.8632,11.4676 5.1165,3.081 12.1231,3.6123 11.1892,-4.247 -0.8085,-6.7998 -6.6352,-11.5551 -12.6584,-14.7453 4.1264,-4.0368 11.3813,-3.6285 16.6009,-2.3753 8.4959,2.0398 15.4684,8.334 22.7318,12.8686 8.5375,5.331 17.5414,10.191 27.1677,13.2421 6.811,2.1575 14.1221,3.4847 21.1368,2.6877 14.7824,6.5653 31.2785,8.9421 47.3753,7.8406 9.5288,-0.651 18.9494,-2.6297 28.0353,-5.5324 7.5705,-2.4177 14.8354,-6.2288 18.7584,-13.4837 0.7543,-1.3937 1.1834,-2.9059 1.3887,-4.4685 0.1514,-1.1405 -0.6954,-2.4643 -1.0594,-3.555 z m -305.1568,1.6091 v 0 c -9.4095,5.8689 -19.437,11.4921 -30.3634,13.926 -3.5933,0.8012 -7.7658,1.2933 -11.9138,1.1213 0.4936,-0.2607 0.9923,-0.5095 1.4804,-0.7804 7.7414,-4.2909 14.6763,-9.829 22.3602,-14.2269 7.5597,-4.3283 15.4296,-8.2539 23.6818,-11.0882 7.6011,-2.6111 17.5981,-5.2881 26.0527,-3.6962 -11.5341,0.5661 -21.781,8.8083 -31.2979,14.7444 z m 37.8479,8.6263 v 0 c -5.8982,3.8662 -7.5626,-2.9371 -5.3539,-7.5856 1.8159,-3.8211 5.0235,-6.5882 8.7172,-8.613 0.2025,0.2835 0.4018,0.5725 0.5786,0.8896 3.0381,5.4383 1.3178,11.8617 -3.9419,15.309 z m 43.7344,2.4622 v 0 c -2.8927,-5.0722 -2.5017,-10.2171 0,-14.4538 2.5015,4.2367 2.8925,9.3816 0,14.4538 z m 49.0888,-10.0478 v 0 c 2.2079,4.6485 0.5444,11.4518 -5.3546,7.5856 -5.26,-3.4473 -6.9796,-9.8707 -3.9423,-15.309 0.1768,-0.3171 0.3758,-0.6061 0.5791,-0.8896 3.6945,2.0248 6.9022,4.7919 8.7178,8.613 z m 62.857,12.8853 v 0 c -10.9258,-2.4339 -20.9537,-8.0571 -30.3627,-13.926 -9.5172,-5.9361 -19.7643,-14.1783 -31.2987,-14.7444 8.4541,-1.5919 18.4519,1.0851 26.0527,3.6962 8.253,2.8343 16.1214,6.7599 23.6826,11.0882 7.6839,4.3979 14.6181,9.936 22.3597,14.2269 0.4879,0.2709 0.9862,0.5197 1.4796,0.7804 -4.147,0.172 -8.3201,-0.3201 -11.9132,-1.1213 z"
       id="path2" />
    <path
       d="m 116.1445,379.5559 c 1.3099,0 2.4031,-1.0933 2.4031,-2.4031 0,-0.1141 0,-0.2288 0,-0.3433 0,-1.3098 -1.0932,-2.4029 -2.4031,-2.4029 -1.3098,0 -2.4029,1.0931 -2.4029,2.4029 0,0.1145 0,0.2292 0,0.3433 0,1.3098 1.0931,2.4031 2.4029,2.4031 z"
       id="path4" />
    <path
       d="m 109.2787,373.3765 c 3.0993,0 3.0993,-4.8059 0,-4.8059 -3.0994,0 -3.0994,4.8059 0,4.8059 z"
       id="path6" />
    <path
       d="m 104.1293,367.1973 c 3.0993,0 3.0993,-4.8061 0,-4.8061 -3.0994,0 -3.0994,4.8061 0,4.8061 z"
       id="path8" />
    <path
       d="m 182.4002,367.884 c 3.0995,0 3.0995,-4.8061 0,-4.8061 -3.0993,0 -3.0993,4.8061 0,4.8061 z"
       id="path10" />
    <path
       d="m 515.0513,379.5559 c 1.3102,0 2.4031,-1.0933 2.4031,-2.4031 0,-0.1141 0,-0.2288 0,-0.3433 0,-1.3098 -1.0929,-2.4029 -2.4031,-2.4029 -1.3103,0 -2.403,1.0931 -2.403,2.4029 0,0.1145 0,0.2292 0,0.3433 0,1.3098 1.0927,2.4031 2.403,2.4031 z"
       id="path12" />
    <path
       d="m 521.9172,373.3765 c 3.099,0 3.099,-4.8059 0,-4.8059 -3.0991,0 -3.0991,4.8059 0,4.8059 z"
       id="path14" />
    <path
       d="m 527.0666,367.1973 c 3.099,0 3.099,-4.8061 0,-4.8061 -3.0991,0 -3.0991,4.8061 0,4.8061 z"
       id="path16" />
    <path
       d="m 448.7956,363.0779 c -3.099,0 -3.099,4.8061 0,4.8061 3.0991,0 3.0991,-4.8061 0,-4.8061 z"
       id="path18" />
    <path
       d="m 315.2545,351.7491 c 3.0992,0 3.0992,-4.806 0,-4.806 -3.0991,0 -3.0991,4.806 0,4.806 z"
       id="path20" />
  </g>
  <g id="6">
    <path
     d="M 349.329,443.1146 H 464.2252"
     style="fill:none;stroke:#000000;stroke-width:3.8761;stroke-linecap:butt;stroke-linejoin:miter;stroke-dasharray:none"
     id="path89" />
    <path
       d="m 474.5679,443.1075 c 0,2.8641 -2.3183,5.1746 -5.1772,5.1746 -2.8589,0 -5.1655,-2.3105 -5.1655,-5.1746 0,-2.8504 2.3066,-5.1636 5.1655,-5.1636 2.8589,0 5.1772,2.3132 5.1772,5.1636 z"
       style="stroke:#000000;stroke-width:3.8761;stroke-linecap:butt;stroke-linejoin:miter;stroke-dasharray:none"
       id="path91" />
    <path
       d="m 171.3637,443.1075 c 0,2.8641 -2.3222,5.1746 -5.1791,5.1746 -2.8602,0 -5.1688,-2.3105 -5.1688,-5.1746 0,-2.8504 2.3086,-5.1636 5.1688,-5.1636 2.8569,0 5.1791,2.3132 5.1791,5.1636 z"
       style="stroke:#000000;stroke-width:3.8761;stroke-linecap:butt;stroke-linejoin:miter;stroke-dasharray:none"
       id="path93" />
    <path
       d="M 286.2515,443.105 H 171.3637"
       style="fill:none;stroke:#000000;stroke-width:3.8761;stroke-linecap:butt;stroke-linejoin:miter;stroke-dasharray:none"
       id="path95" />
    <path
       d="m 294.999,452.8355 c 11.4374,2.0661 22.3761,-8.7565 22.3761,-8.7565"
       style="fill:none;stroke:#000000;stroke-width:3.8761;stroke-linecap:butt;stroke-linejoin:miter;stroke-dasharray:none"
       id="path97" />
    <path
       d="m 315.1078,442.5496 c 0.3045,-1.6688 1.9055,-2.7802 3.5845,-2.4661 1.6875,0.2935 2.7925,1.8965 2.4873,3.5581 -0.3018,1.6901 -1.8983,2.8241 -3.5922,2.5151 -1.6727,-0.2974 -2.7796,-1.9171 -2.4796,-3.6071 z"
       style="fill:#000000;fill-rule:evenodd;stroke:#000000;stroke-width:3.8761;stroke-linecap:butt;stroke-linejoin:miter;stroke-dasharray:none"
       id="path99" />
    <path
       d="m 294.999,452.8355 c -5.8938,-1.0637 -9.8092,-6.6969 -8.7475,-12.6075 0.8515,-4.7101 5.3694,-7.8444 10.0815,-6.9962 3.7813,0.6838 6.2924,4.2967 5.6177,8.0728 -0.5463,3.0214 -3.4387,5.0204 -6.4634,4.4799 0,0 -2.0945,-0.2632 -1.7777,-1.9435 0.2799,-1.465 2.077,-0.945 2.8653,0.2851 1.0501,1.6281 2.8969,0.8618 2.8969,0.8618"
       style="fill:none;stroke:#000000;stroke-width:3.8761;stroke-linecap:butt;stroke-linejoin:miter;stroke-dasharray:none"
       id="path101" />
    <path
       d="m 341.2723,433.3731 c -11.4284,-2.0558 -22.3665,8.7604 -22.3665,8.7604"
       style="fill:none;stroke:#000000;stroke-width:3.8761;stroke-linecap:butt;stroke-linejoin:miter;stroke-dasharray:none"
       id="path103" />
    <path
       d="m 341.2665,433.3731 c 5.9028,1.0643 9.817,6.7143 8.7578,12.6114 -0.8514,4.7204 -5.3687,7.847 -10.0821,6.9994 -3.7768,-0.6786 -6.2892,-4.2877 -5.6074,-8.067 0.5367,-3.0272 3.4387,-5.032 6.4563,-4.4825 0,0 2.0925,0.2665 1.7726,1.9371 -0.2677,1.4695 -2.0777,0.9521 -2.8621,-0.2825 -1.0476,-1.6229 -2.8995,-0.8579 -2.8995,-0.8579"
       style="fill:none;stroke:#000000;stroke-width:3.8761;stroke-linecap:butt;stroke-linejoin:miter;stroke-dasharray:none"
       id="path105" />
  </g>
</svg>
