<?xml version="1.0" encoding="UTF-8" standalone="no"?>
<svg
   version="1.1"
   width="595.27557"
   height="30.88977"
   viewBox="0 290 595.27557 30.88977"
   xmlns="http://www.w3.org/2000/svg"
>
    <g id="4">
        <path
           d="m 274.0907,312.6577 c 2.3339,0.2328 5.3542,-1.1955 7.4487,-2.0542 2.323,-0.9538 4.5716,-2.044 6.9591,-2.8674 3.3428,-1.1512 8.2483,-2.6005 11.5653,-0.2399 1.2167,0.8658 1.5814,1.6114 2.3049,3.1073 -0.008,-1.9261 -0.9087,-3.4358 -1.6785,-4.1353 -2.9374,-2.6681 -8.936,-0.6905 -11.968,0.3632 -4.4125,1.5336 -8.1481,3.89 -12.6414,5.2716 -0.5351,0.1646 -1.5585,0.2609 -1.9901,0.5547 z"
           id="path28" />
        <path
           d="m 301.1955,310.5891 c -0.5166,-1.9452 -4.0673,-4.027 -6.5373,-1.8896 -0.433,0.374 -1.4731,1.4361 -1.2139,2.5467 0.1172,0.5002 1.1654,1.4833 1.8928,-0.1054 0.455,-0.9944 0.6515,-1.9524 1.3835,-2.4353 1.449,-0.9538 3.2284,0.3387 4.3304,1.7125 z"
           id="path30" />
        <path
           d="m 269.2092,309.7825 c -0.9607,-0.005 -1.7769,0.2059 -2.8148,0.146 -0.9196,-0.0532 -1.6626,-0.3578 -2.266,-0.9837 -1.1204,-1.1614 -0.4206,-3.8864 -1.4897,-4.398 -1.2716,-0.6079 -2.027,1.1226 -0.5181,3.3186 1.1261,1.6395 2.6686,2.2672 4.346,2.3366 0.7153,0.0299 2.1715,-0.1298 2.7426,-0.4195 z"
           id="path32" />
        <path
           d="m 273.3123,308.4625 c -0.8052,0.0485 -2.7472,1.0897 -3.9494,0.0916 -0.4964,-0.4123 -0.6214,-1.2069 -0.8282,-2.1434 -0.1049,-0.4733 -0.226,-0.8149 -0.4869,-0.9675 -1.4675,-0.8569 -1.709,2.6292 1.3052,3.5788 1.5609,0.4919 2.618,0.0281 3.9593,-0.5595 z"
           id="path34" />
        <path
           d="m 275.9314,307.4381 c -0.7405,0.0509 -1.8708,0.5517 -2.5302,-0.2226 -0.3594,-0.4224 -0.3123,-0.864 -0.4872,-1.5138 -0.3035,-1.1273 -1.6251,-0.6074 -0.6314,1.025 0.2518,0.4135 0.5273,0.642 0.9518,0.8455 0.8141,0.3895 2.0298,0.274 2.697,-0.1341 z"
           id="path36" />
        <path
           d="m 266.7223,311.6088 -0.3559,0.058 -0.4104,0.0592 c -2.7978,0.5296 -6.1679,0.228 -7.9976,-1.9099 -0.8658,-1.0113 -1.2628,-2.6891 -1.4296,-4.9503 -0.0711,-0.9646 -0.0286,-2.159 -0.3158,-2.9727 -0.3219,-0.9125 -1.2447,-0.6726 -1.607,0.0203 -0.7103,1.3559 0.5337,4.1694 0.938,5.0831 2.6584,6.0029 6.1092,5.7414 10.3791,5.6756 l 0.3035,-0.0724 c 9.6994,-1.0298 27.4879,-12.1433 34.09,-7.8099 2.2936,1.5055 2.4073,3.7715 2.7808,4.5643 -0.1211,-5.9567 -2.2323,-8.2287 -6.3396,-8.2485 -7.4399,-0.0353 -20.3958,8.3891 -28.9161,10.2351 -0.3754,0.1095 -0.6955,0.0891 -1.1194,0.2681 z"
           id="path38" />
        <path
           d="m 256.6861,308.894 c -123.7018,-0.1024 -217.7196,0.1071 -217.7196,-0.4943 0,-0.6007 93.8606,-1.1004 217.5623,-1.2027 z"
           id="path40" />
        <path
           d="m 302.835,304.1537 c 0.0163,-1.1183 -0.137,-2.4647 -0.7528,-3.0612 -0.835,-0.8096 -1.0669,0.4475 -0.5039,0.6103 0.3438,0.0993 0.591,-0.0712 0.8258,0.2579 0.296,0.4135 0.3764,1.5043 0.4309,2.193 z"
           id="path42" />
        <path
           d="m 302.9933,303.9915 0.0694,0.8737 c 0.0195,-0.03 0.1332,0.073 0.1229,-0.5637 -0.005,-0.3291 -0.0241,-0.356 -0.1062,-0.5487 0.0581,-1.5025 -0.3697,-1.9136 -0.1335,-2.5437 l 0.4316,4.1336 c 0.1279,-2.2062 -0.3187,-5.1472 -0.8987,-6.8322 -0.33,-0.9568 -0.7217,-1.8352 -1.1572,-2.4336 -0.7653,-1.0513 -1.2989,-1.0866 -1.7982,-1.4708 h -0.6661 c -0.2323,0.2466 -0.506,0.4243 -0.5722,0.9084 -0.0652,0.4775 0.0913,1.1141 0.2393,1.4145 0.6714,1.3607 2.5277,-0.5379 3.6523,1.7975 0.266,0.5535 0.7246,1.7305 0.692,2.5556 -0.1378,-0.1376 -0.153,-0.2597 -0.2337,-0.5487 -0.6413,-2.3031 -2.1583,-3.0175 -2.4873,-2.1786 -0.1905,0.7001 0.0952,1.3074 0.5885,1.3714 0.5985,0.0772 1.0046,-0.0891 1.4289,0.377 0.484,0.532 0.8962,2.4677 0.8282,3.6883 z"
           id="path44" />
        <path
           d="m 333.0908,312.6577 c -2.334,0.2328 -5.3542,-1.1955 -7.4488,-2.0542 -2.323,-0.9538 -4.5719,-2.044 -6.959,-2.8674 -3.3428,-1.1512 -8.2484,-2.6005 -11.5653,-0.2399 -1.2168,0.8658 -1.5815,1.6114 -2.3053,3.1073 0.008,-1.9261 0.909,-3.4358 1.6785,-4.1353 2.9377,-2.6681 8.9364,-0.6905 11.9683,0.3632 4.4126,1.5336 8.1481,3.89 12.6411,5.2716 0.5354,0.1646 1.5588,0.2609 1.9905,0.5547 z"
           id="path46" />
        <path
           d="m 305.9856,310.5891 c 0.5166,-1.9452 4.0673,-4.027 6.5376,-1.8896 0.4327,0.374 1.4731,1.4361 1.2139,2.5467 -0.1172,0.5002 -1.1657,1.4833 -1.8927,-0.1054 -0.4551,-0.9944 -0.6516,-1.9524 -1.3835,-2.4353 -1.4491,-0.9538 -3.2285,0.3387 -4.3305,1.7125 z"
           id="path48" />
        <path
           d="m 337.9718,309.7825 c 0.9611,-0.005 1.7773,0.2059 2.8152,0.146 0.9193,-0.0532 1.6626,-0.3578 2.266,-0.9837 1.1204,-1.1614 0.4203,-3.8864 1.4897,-4.398 1.2713,-0.6079 2.027,1.1226 0.5181,3.3186 -1.1261,1.6395 -2.6686,2.2672 -4.346,2.3366 -0.7153,0.0299 -2.1714,-0.1298 -2.743,-0.4195 z"
           id="path50" />
        <path
           d="m 333.8691,308.4625 c 0.8052,0.0485 2.7472,1.0897 3.9494,0.0916 0.4965,-0.4123 0.6215,-1.2069 0.8279,-2.1434 0.1052,-0.4733 0.2259,-0.8149 0.4873,-0.9675 1.4674,-0.8569 1.7089,2.6292 -1.3053,3.5788 -1.5609,0.4919 -2.6179,0.0281 -3.9593,-0.5595 z"
           id="path52" />
        <path
           d="m 331.2501,307.4381 c 0.7404,0.0509 1.8708,0.5517 2.5301,-0.2226 0.3594,-0.4224 0.3123,-0.864 0.4873,-1.5138 0.3034,-1.1273 1.6246,-0.6074 0.6314,1.025 -0.2518,0.4135 -0.5273,0.642 -0.9519,0.8455 -0.8141,0.3895 -2.0301,0.274 -2.6969,-0.1341 z"
           id="path54" />
        <path
           d="m 304.3464,304.1537 c -0.0163,-1.1183 0.137,-2.4647 0.7528,-3.0612 0.8347,-0.8096 1.067,0.4475 0.5036,0.6103 -0.3435,0.0993 -0.5907,-0.0712 -0.8255,0.2579 -0.296,0.4135 -0.3767,1.5043 -0.4309,2.193 z"
           id="path56" />
        <path
           d="m 304.1881,303.9915 -0.0694,0.8737 c -0.0195,-0.03 -0.1331,0.073 -0.1229,-0.5637 0.005,-0.3291 0.0241,-0.356 0.1063,-0.5487 -0.0581,-1.5025 0.3697,-1.9136 0.1335,-2.5437 l -0.4317,4.1336 c -0.1278,-2.2062 0.3187,-5.1472 0.8987,-6.8322 0.3301,-0.9568 0.7217,-1.8352 1.1573,-2.4336 0.7652,-1.0513 1.2985,-1.0866 1.7982,-1.4708 h 0.666 c 0.232,0.2466 0.5057,0.4243 0.5719,0.9084 0.0655,0.4775 -0.091,1.1141 -0.239,1.4145 -0.6714,1.3607 -2.5277,-0.5379 -3.6523,1.7975 -0.2659,0.5535 -0.7245,1.7305 -0.6919,2.5556 0.1377,-0.1376 0.1529,-0.2597 0.2337,-0.5487 0.6413,-2.3031 2.1583,-3.0175 2.4873,-2.1786 0.1905,0.7001 -0.0953,1.3074 -0.5886,1.3714 -0.5984,0.0772 -1.0046,-0.0891 -1.4288,0.377 -0.4841,0.532 -0.8963,2.4677 -0.8283,3.6883 z"
           id="path58" />
        <path
           d="m 340.4591,311.6088 0.3559,0.058 0.4104,0.0592 c 2.7979,0.5296 6.1676,0.228 7.9973,-1.9099 0.8658,-1.0113 1.2628,-2.6891 1.4299,-4.9503 0.0708,-0.9646 0.0287,-2.159 0.3159,-2.9727 0.3219,-0.9125 1.2447,-0.6726 1.6069,0.0203 0.7104,1.3559 -0.5336,4.1694 -0.9384,5.0831 -2.6579,6.0029 -6.1088,5.7414 -10.3786,5.6756 l -0.3035,-0.0724 c -9.6995,-1.0298 -27.488,-12.1433 -34.0901,-7.8099 -2.2935,1.5055 -2.4072,3.7715 -2.7808,4.5643 0.1211,-5.9567 2.232,-8.2287 6.3397,-8.2485 7.4395,-0.0353 20.3954,8.3891 28.9161,10.2351 0.3753,0.1095 0.6955,0.0891 1.1193,0.2681 z"
           id="path60" />
        <path
           d="m 350.4954,308.894 c 123.7017,-0.1024 217.7192,0.1071 217.7192,-0.4943 0,-0.6007 -93.8606,-1.1004 -217.562,-1.2027 z"
           id="path62" />
    </g>
</svg>
